<svg width="74" height="90" viewBox="0 0 74 90" fill="none" xmlns="http://www.w3.org/2000/svg">
<path d="M6.70186 86.2867C6.70186 84.4361 5.2016 82.9358 3.35093 82.9358C1.50026 82.9358 0 84.4361 0 86.2867C0 88.1374 1.50026 89.6377 3.35093 89.6377C5.2016 89.6377 6.70186 88.1374 6.70186 86.2867Z" fill="white"/>
<path d="M6.70186 69.6717C6.70186 67.821 5.2016 66.3207 3.35093 66.3207C1.50026 66.3207 0 67.821 0 69.6717C0 71.5223 1.50026 73.0226 3.35093 73.0226C5.2016 73.0226 6.70186 71.5223 6.70186 69.6717Z" fill="white"/>
<path d="M6.70186 53.0567C6.70186 51.206 5.2016 49.7057 3.35093 49.7057C1.50026 49.7057 0 51.206 0 53.0567C0 54.9073 1.50026 56.4076 3.35093 56.4076C5.2016 56.4076 6.70186 54.9073 6.70186 53.0567Z" fill="white"/>
<path d="M6.70186 36.5812C6.70186 34.7305 5.2016 33.2302 3.35093 33.2302C1.50026 33.2302 0 34.7305 0 36.5812C0 38.4319 1.50026 39.9321 3.35093 39.9321C5.2016 39.9321 6.70186 38.4319 6.70186 36.5812Z" fill="white"/>
<path d="M6.70186 19.966C6.70186 18.1154 5.2016 16.6151 3.35093 16.6151C1.50026 16.6151 0 18.1154 0 19.966C0 21.8167 1.50026 23.317 3.35093 23.317C5.2016 23.317 6.70186 21.8167 6.70186 19.966Z" fill="white"/>
<path d="M6.70186 3.35097C6.70186 1.5003 5.2016 4.48227e-05 3.35093 4.48227e-05C1.50026 4.48227e-05 0 1.5003 0 3.35097C0 5.20165 1.50026 6.7019 3.35093 6.7019C5.2016 6.7019 6.70186 5.20165 6.70186 3.35097Z" fill="white"/>
<path d="M23.4566 86.2867C23.4566 84.4361 21.9563 82.9358 20.1057 82.9358C18.255 82.9358 16.7547 84.4361 16.7547 86.2867C16.7547 88.1374 18.255 89.6377 20.1057 89.6377C21.9563 89.6377 23.4566 88.1374 23.4566 86.2867Z" fill="white"/>
<path d="M23.4566 69.6717C23.4566 67.821 21.9563 66.3207 20.1056 66.3207C18.255 66.3207 16.7547 67.821 16.7547 69.6717C16.7547 71.5223 18.255 73.0226 20.1056 73.0226C21.9563 73.0226 23.4566 71.5223 23.4566 69.6717Z" fill="white"/>
<path d="M23.4566 53.0567C23.4566 51.206 21.9563 49.7057 20.1056 49.7057C18.255 49.7057 16.7547 51.206 16.7547 53.0567C16.7547 54.9073 18.255 56.4076 20.1056 56.4076C21.9563 56.4076 23.4566 54.9073 23.4566 53.0567Z" fill="white"/>
<path d="M23.4566 36.5812C23.4566 34.7305 21.9563 33.2302 20.1056 33.2302C18.255 33.2302 16.7547 34.7305 16.7547 36.5812C16.7547 38.4319 18.255 39.9321 20.1056 39.9321C21.9563 39.9321 23.4566 38.4319 23.4566 36.5812Z" fill="white"/>
<path d="M23.4566 19.966C23.4566 18.1154 21.9563 16.6151 20.1056 16.6151C18.255 16.6151 16.7547 18.1154 16.7547 19.966C16.7547 21.8167 18.255 23.317 20.1056 23.317C21.9563 23.317 23.4566 21.8167 23.4566 19.966Z" fill="white"/>
<path d="M23.4566 3.35097C23.4566 1.5003 21.9563 4.48227e-05 20.1056 4.48227e-05C18.255 4.48227e-05 16.7547 1.5003 16.7547 3.35097C16.7547 5.20165 18.255 6.7019 20.1056 6.7019C21.9563 6.7019 23.4566 5.20165 23.4566 3.35097Z" fill="white"/>
<path d="M40.3527 86.2867C40.3527 84.4361 38.8525 82.9358 37.0018 82.9358C35.1511 82.9358 33.6509 84.4361 33.6509 86.2867C33.6509 88.1374 35.1511 89.6377 37.0018 89.6377C38.8525 89.6377 40.3527 88.1374 40.3527 86.2867Z" fill="white"/>
<path d="M40.3508 69.6717C40.3508 67.821 38.8506 66.3207 36.9999 66.3207C35.1492 66.3207 33.649 67.821 33.649 69.6717C33.649 71.5223 35.1492 73.0226 36.9999 73.0226C38.8506 73.0226 40.3508 71.5223 40.3508 69.6717Z" fill="white"/>
<path d="M40.3508 53.0567C40.3508 51.206 38.8506 49.7057 36.9999 49.7057C35.1492 49.7057 33.649 51.206 33.649 53.0567C33.649 54.9073 35.1492 56.4076 36.9999 56.4076C38.8506 56.4076 40.3508 54.9073 40.3508 53.0567Z" fill="white"/>
<path d="M40.3508 36.5812C40.3508 34.7305 38.8506 33.2302 36.9999 33.2302C35.1492 33.2302 33.649 34.7305 33.649 36.5812C33.649 38.4319 35.1492 39.9321 36.9999 39.9321C38.8506 39.9321 40.3508 38.4319 40.3508 36.5812Z" fill="white"/>
<path d="M40.3508 19.966C40.3508 18.1154 38.8506 16.6151 36.9999 16.6151C35.1492 16.6151 33.649 18.1154 33.649 19.966C33.649 21.8167 35.1492 23.317 36.9999 23.317C38.8506 23.317 40.3508 21.8167 40.3508 19.966Z" fill="white"/>
<path d="M40.3508 3.35097C40.3508 1.5003 38.8506 4.48227e-05 36.9999 4.48227e-05C35.1492 4.48227e-05 33.649 1.5003 33.649 3.35097C33.649 5.20165 35.1492 6.7019 36.9999 6.7019C38.8506 6.7019 40.3508 5.20165 40.3508 3.35097Z" fill="white"/>
<path d="M57.1056 86.2867C57.1056 84.4361 55.6054 82.9358 53.7547 82.9358C51.904 82.9358 50.4038 84.4361 50.4038 86.2867C50.4038 88.1374 51.904 89.6377 53.7547 89.6377C55.6054 89.6377 57.1056 88.1374 57.1056 86.2867Z" fill="white"/>
<path d="M57.1056 69.6717C57.1056 67.821 55.6053 66.3207 53.7547 66.3207C51.904 66.3207 50.4037 67.821 50.4037 69.6717C50.4037 71.5223 51.904 73.0226 53.7547 73.0226C55.6053 73.0226 57.1056 71.5223 57.1056 69.6717Z" fill="white"/>
<path d="M57.1056 53.0567C57.1056 51.206 55.6053 49.7057 53.7547 49.7057C51.904 49.7057 50.4037 51.206 50.4037 53.0567C50.4037 54.9073 51.904 56.4076 53.7547 56.4076C55.6053 56.4076 57.1056 54.9073 57.1056 53.0567Z" fill="white"/>
<path d="M57.1056 36.5812C57.1056 34.7305 55.6053 33.2302 53.7547 33.2302C51.904 33.2302 50.4037 34.7305 50.4037 36.5812C50.4037 38.4319 51.904 39.9321 53.7547 39.9321C55.6053 39.9321 57.1056 38.4319 57.1056 36.5812Z" fill="white"/>
<path d="M57.1056 19.966C57.1056 18.1154 55.6053 16.6151 53.7547 16.6151C51.904 16.6151 50.4037 18.1154 50.4037 19.966C50.4037 21.8167 51.904 23.317 53.7547 23.317C55.6053 23.317 57.1056 21.8167 57.1056 19.966Z" fill="white"/>
<path d="M57.1056 3.35097C57.1056 1.5003 55.6053 4.48227e-05 53.7547 4.48227e-05C51.904 4.48227e-05 50.4037 1.5003 50.4037 3.35097C50.4037 5.20165 51.904 6.7019 53.7547 6.7019C55.6053 6.7019 57.1056 5.20165 57.1056 3.35097Z" fill="white"/>
<path d="M74 86.2867C74 84.4361 72.4997 82.9358 70.6491 82.9358C68.7984 82.9358 67.2981 84.4361 67.2981 86.2867C67.2981 88.1374 68.7984 89.6377 70.6491 89.6377C72.4997 89.6377 74 88.1374 74 86.2867Z" fill="white"/>
<path d="M73.9999 69.6717C73.9999 67.821 72.4996 66.3207 70.649 66.3207C68.7983 66.3207 67.298 67.821 67.298 69.6717C67.298 71.5223 68.7983 73.0226 70.649 73.0226C72.4996 73.0226 73.9999 71.5223 73.9999 69.6717Z" fill="white"/>
<path d="M73.9999 53.0567C73.9999 51.206 72.4996 49.7057 70.649 49.7057C68.7983 49.7057 67.298 51.206 67.298 53.0567C67.298 54.9073 68.7983 56.4076 70.649 56.4076C72.4996 56.4076 73.9999 54.9073 73.9999 53.0567Z" fill="white"/>
<path d="M73.9999 36.5812C73.9999 34.7305 72.4996 33.2302 70.649 33.2302C68.7983 33.2302 67.298 34.7305 67.298 36.5812C67.298 38.4319 68.7983 39.9321 70.649 39.9321C72.4996 39.9321 73.9999 38.4319 73.9999 36.5812Z" fill="white"/>
<path d="M73.9999 19.966C73.9999 18.1154 72.4996 16.6151 70.649 16.6151C68.7983 16.6151 67.298 18.1154 67.298 19.966C67.298 21.8167 68.7983 23.317 70.649 23.317C72.4996 23.317 73.9999 21.8167 73.9999 19.966Z" fill="white"/>
<path d="M73.9999 3.35097C73.9999 1.5003 72.4996 4.48227e-05 70.649 4.48227e-05C68.7983 4.48227e-05 67.298 1.5003 67.298 3.35097C67.298 5.20165 68.7983 6.7019 70.649 6.7019C72.4996 6.7019 73.9999 5.20165 73.9999 3.35097Z" fill="white"/>
</svg>
