<svg width="12" height="74" viewBox="0 0 12 74" fill="none" xmlns="http://www.w3.org/2000/svg">
<path d="M9.11306 72.5492C8.40595 73.2563 7.27457 73.2563 6.56746 72.5492L0.698484 66.6802C-0.00862247 65.9731 -0.00863326 64.8417 0.698474 64.1346L5.29467 59.5384C6.00177 58.8313 6.00179 57.6999 5.29468 56.9928L0.698484 52.3966C-0.00862247 51.6895 -0.00862247 50.5581 0.698484 49.851L5.29468 45.2548C6.00179 44.5477 6.00177 43.4164 5.29467 42.7092L0.769189 38.1838C0.0620817 37.4767 0.0620925 36.3453 0.769199 35.6382L5.36539 31.042C6.0725 30.3349 6.07249 29.2035 5.36538 28.4964L0.839903 23.9709C0.132797 23.2638 0.132808 22.1324 0.839914 21.4253L5.43611 16.8291C6.14322 16.122 6.14319 14.9907 5.43609 14.2836L0.839893 9.68736C0.132786 8.98026 0.132797 7.84889 0.839903 7.14179L6.70889 1.2728C7.416 0.565691 8.54736 0.56568 9.25447 1.27279C9.96158 1.97989 9.96159 3.11128 9.25448 3.81839L5.93108 7.14179C5.22397 7.84889 5.22396 8.98026 5.93107 9.68736L10.5273 14.2836C11.2344 14.9907 11.2344 16.122 10.5273 16.8291L5.93106 21.4253C5.22395 22.1324 5.22396 23.2638 5.93107 23.9709L10.5273 28.5671C11.2344 29.2742 11.2344 30.4056 10.5273 31.1127L5.86036 35.7796C5.15325 36.4867 5.15326 37.6181 5.86037 38.3252L10.4566 42.9214C11.1637 43.6285 11.1637 44.7599 10.4565 45.467L5.86036 50.0632C5.15325 50.7703 5.15325 51.9016 5.86036 52.6087L10.4565 57.2049C11.1637 57.912 11.1637 59.0434 10.4566 59.7505L5.86037 64.3467C5.15326 65.0538 5.15325 66.1852 5.86036 66.8923L9.18377 70.2157C9.82016 70.7107 9.82017 71.8421 9.11306 72.5492Z" fill="#3AE4DF"/>
</svg>
